<svg id="svg" version="1.1" xmlns="http://www.w3.org/2000/svg" xmlns:xlink="http://www.w3.org/1999/xlink" width="400" height="405.2631578947368" viewBox="0, 0, 400,405.2631578947368"><g id="svgg"><path id="path0" d="M152.200 5.437 C 149.313 5.645,144.634 6.453,144.400 6.785 C 144.118 7.185,140.137 9.664,138.055 10.735 C 137.096 11.229,135.193 12.796,133.827 14.217 C 132.462 15.638,131.183 16.800,130.986 16.800 C 130.789 16.800,130.262 17.150,129.814 17.579 C 129.366 18.007,128.045 19.222,126.877 20.279 C 125.709 21.335,121.924 24.990,118.465 28.400 C 112.129 34.647,100.812 45.443,96.000 49.830 C 94.570 51.133,92.489 53.145,91.377 54.300 C 90.264 55.455,89.184 56.401,88.977 56.403 C 88.769 56.404,88.297 56.937,87.927 57.588 C 87.557 58.239,86.792 58.887,86.227 59.029 C 85.662 59.171,85.200 59.511,85.200 59.785 C 85.200 60.328,81.061 64.400,80.510 64.400 C 80.324 64.400,79.854 64.940,79.464 65.600 C 79.074 66.260,78.593 66.800,78.396 66.800 C 78.198 66.800,77.601 67.205,77.070 67.700 C 76.538 68.195,75.675 68.989,75.152 69.465 C 74.628 69.941,74.020 70.534,73.800 70.781 C 73.580 71.029,71.960 72.598,70.200 74.267 C 68.440 75.936,65.377 78.854,63.394 80.751 C 61.411 82.648,58.005 85.820,55.825 87.800 C 53.645 89.780,50.858 92.390,49.631 93.600 C 48.404 94.810,46.500 96.631,45.400 97.647 C 44.300 98.663,42.658 100.283,41.750 101.247 C 40.843 102.211,38.593 104.411,36.750 106.135 C 23.636 118.407,19.600 122.291,19.600 122.638 C 19.600 122.752,18.295 124.161,16.700 125.769 C 13.032 129.466,11.683 131.331,11.357 133.154 C 11.215 133.949,10.672 135.517,10.149 136.639 C 9.627 137.760,9.200 139.326,9.200 140.120 L 9.200 141.563 10.333 140.913 C 11.674 140.143,12.800 140.451,12.800 141.587 C 12.800 142.820,13.224 142.609,16.018 139.983 C 17.433 138.654,19.521 137.110,20.660 136.553 C 21.798 135.996,23.044 135.194,23.427 134.770 C 23.810 134.347,24.289 134.000,24.491 134.000 C 24.692 134.000,25.112 133.746,25.423 133.435 C 26.031 132.826,29.645 131.607,33.200 130.812 C 34.410 130.541,36.849 129.887,38.621 129.360 C 40.392 128.832,42.372 128.379,43.021 128.353 L 44.200 128.305 43.000 128.028 L 41.800 127.750 43.061 127.452 C 43.755 127.288,45.465 127.190,46.861 127.236 C 49.507 127.322,62.666 126.524,63.133 126.250 C 63.280 126.163,66.280 125.968,69.800 125.817 C 73.320 125.665,77.910 125.207,80.000 124.798 C 82.090 124.389,85.600 123.854,87.800 123.610 C 90.000 123.366,93.780 122.900,96.200 122.574 C 101.568 121.850,112.115 121.204,118.604 121.202 C 122.838 121.200,123.462 121.113,123.868 120.462 C 124.267 119.824,125.103 119.688,130.102 119.452 C 133.278 119.302,137.389 119.003,139.238 118.789 C 149.774 117.565,209.165 117.994,224.996 119.408 C 228.734 119.742,237.284 120.207,243.996 120.443 C 250.708 120.678,258.000 120.957,260.200 121.064 C 265.875 121.339,266.156 121.180,274.770 112.800 C 282.054 105.715,290.957 97.353,291.822 96.786 C 292.337 96.448,295.243 93.640,298.279 90.547 C 301.316 87.453,304.655 84.346,305.700 83.642 C 306.745 82.938,307.600 82.226,307.600 82.060 C 307.600 81.734,312.584 76.655,315.073 74.444 C 315.913 73.698,320.020 69.762,324.200 65.698 C 328.380 61.634,332.642 57.632,333.670 56.806 C 334.699 55.980,337.557 53.345,340.022 50.952 C 342.488 48.558,345.828 45.340,347.447 43.800 C 351.297 40.136,351.319 40.113,353.247 37.900 C 354.157 36.855,355.133 36.000,355.414 36.000 C 356.062 36.000,360.000 31.026,360.000 30.209 C 360.000 29.874,359.845 29.600,359.656 29.600 C 359.467 29.600,358.677 29.169,357.900 28.642 C 356.719 27.840,355.653 27.611,351.345 27.230 C 344.723 26.644,340.458 26.004,339.200 25.406 C 338.650 25.145,336.400 24.697,334.200 24.411 C 332.000 24.125,329.300 23.565,328.200 23.167 C 326.936 22.709,323.478 22.208,318.800 21.807 C 314.730 21.457,309.870 20.823,308.000 20.397 C 306.130 19.971,302.530 19.322,300.000 18.954 C 297.470 18.586,294.899 18.033,294.286 17.725 C 293.564 17.362,290.677 17.033,286.086 16.791 C 279.115 16.423,275.960 16.070,272.400 15.259 C 271.410 15.033,268.080 14.561,265.000 14.208 C 257.033 13.296,254.027 12.824,252.200 12.198 C 251.190 11.852,247.723 11.556,242.800 11.397 C 238.510 11.258,232.390 10.805,229.200 10.390 C 226.010 9.974,218.360 9.163,212.200 8.586 C 206.040 8.009,199.740 7.280,198.200 6.965 C 194.392 6.187,158.391 4.991,152.200 5.437 M376.922 49.715 C 376.658 49.982,375.695 50.830,374.780 51.600 C 373.865 52.370,371.696 54.395,369.959 56.100 C 368.222 57.805,366.632 59.200,366.427 59.200 C 366.222 59.200,365.950 59.515,365.822 59.900 C 365.695 60.285,364.491 61.500,363.148 62.600 C 361.804 63.700,360.051 65.301,359.252 66.158 C 358.454 67.015,357.443 68.005,357.007 68.358 C 356.571 68.711,355.203 69.990,353.968 71.200 C 352.732 72.410,350.229 74.750,348.407 76.400 C 346.584 78.050,343.777 80.705,342.168 82.300 C 340.558 83.895,339.007 85.201,338.721 85.203 C 338.434 85.204,337.883 85.761,337.497 86.441 C 337.110 87.121,336.435 87.770,335.997 87.885 C 335.558 88.000,335.200 88.348,335.200 88.660 C 335.200 88.972,334.570 89.599,333.800 90.053 C 333.030 90.507,332.400 91.088,332.400 91.342 C 332.400 91.597,331.491 92.615,330.381 93.603 C 329.270 94.591,326.030 97.695,323.182 100.500 C 320.333 103.305,317.889 105.600,317.752 105.600 C 317.615 105.600,315.825 107.265,313.775 109.300 C 307.807 115.223,304.488 118.380,300.620 121.813 C 296.876 125.136,286.969 134.868,284.185 137.959 L 282.600 139.718 282.549 178.759 C 282.497 219.213,282.098 232.109,280.604 241.600 C 280.276 243.690,279.907 248.730,279.785 252.800 C 279.317 268.397,278.458 277.692,277.395 278.659 C 276.492 279.480,276.442 279.812,276.254 286.174 C 276.140 290.033,275.797 293.959,275.438 295.515 C 275.098 296.992,274.621 301.080,274.379 304.600 C 273.914 311.368,272.954 320.724,272.551 322.400 C 272.420 322.950,271.961 324.570,271.533 326.000 C 270.499 329.457,269.698 334.192,269.404 338.600 C 269.026 344.249,268.386 348.681,267.353 352.791 C 266.829 354.876,266.400 357.025,266.400 357.567 C 266.400 362.497,263.285 373.327,260.715 377.333 C 260.003 378.442,259.024 380.206,258.539 381.253 C 257.652 383.166,254.990 386.577,250.965 390.956 C 247.615 394.601,248.480 395.871,253.486 394.657 C 254.978 394.294,256.495 393.998,256.855 393.999 C 257.215 394.000,258.426 393.370,259.545 392.600 C 260.665 391.830,261.743 391.200,261.941 391.200 C 262.140 391.200,262.524 390.933,262.795 390.606 C 263.066 390.280,264.107 389.605,265.107 389.106 C 266.108 388.608,267.663 387.417,268.563 386.461 C 269.464 385.504,270.542 384.424,270.960 384.061 C 271.378 383.697,272.008 383.075,272.360 382.678 C 273.758 381.100,276.617 378.408,276.900 378.404 C 277.065 378.402,278.985 376.645,281.167 374.500 C 283.349 372.355,287.597 368.260,290.606 365.400 C 293.616 362.540,296.551 359.705,297.128 359.100 C 297.706 358.495,298.365 358.000,298.594 358.000 C 298.823 358.000,299.368 357.522,299.805 356.937 C 300.242 356.353,301.384 355.138,302.343 354.237 C 304.163 352.528,310.839 346.086,317.000 340.093 C 318.980 338.168,321.050 336.189,321.600 335.697 C 322.150 335.205,322.904 334.486,323.276 334.101 C 323.648 333.715,324.694 332.770,325.600 332.000 C 326.506 331.230,327.551 330.263,327.923 329.851 C 328.296 329.439,328.833 328.899,329.119 328.651 C 329.748 328.104,335.239 322.917,335.800 322.340 C 336.020 322.114,337.635 320.550,339.389 318.864 C 341.143 317.179,343.864 314.495,345.436 312.900 C 347.009 311.305,348.499 310.000,348.748 310.000 C 348.996 310.000,349.200 309.828,349.200 309.618 C 349.200 309.407,350.174 308.282,351.365 307.118 C 356.454 302.141,364.081 295.001,364.924 294.424 C 365.426 294.081,368.259 291.423,371.219 288.517 C 374.178 285.612,376.843 283.002,377.140 282.717 C 383.359 276.758,388.400 271.535,388.400 271.051 C 388.400 270.774,389.120 269.131,390.000 267.400 C 390.880 265.669,391.600 264.009,391.600 263.712 C 391.600 263.158,392.740 261.175,393.286 260.779 C 394.490 259.906,394.676 247.969,393.998 214.927 C 393.742 202.490,393.416 194.784,393.040 192.327 C 392.727 190.277,392.360 185.900,392.227 182.600 C 391.232 158.089,391.153 156.843,389.791 144.400 C 389.441 141.210,388.995 134.010,388.799 128.400 C 388.578 122.080,388.222 117.287,387.863 115.800 C 387.544 114.480,386.982 110.160,386.613 106.200 C 386.245 102.240,385.603 96.570,385.186 93.600 C 384.770 90.630,384.228 85.230,383.982 81.600 C 383.348 72.221,382.946 68.257,382.262 64.600 C 381.933 62.840,381.371 59.510,381.012 57.200 C 380.075 51.155,380.024 50.951,379.229 50.033 C 378.420 49.100,377.635 48.992,376.922 49.715 M117.900 119.896 C 116.635 119.975,114.565 119.975,113.300 119.896 C 112.035 119.816,113.070 119.751,115.600 119.751 C 118.130 119.751,119.165 119.816,117.900 119.896 M89.600 122.359 C 89.600 122.732,83.130 123.163,81.900 122.872 C 79.977 122.417,81.651 122.000,85.400 122.000 C 87.710 122.000,89.600 122.162,89.600 122.359 " stroke="none" fill="#94ca1d" fill-rule="evenodd"></path><path id="path1" d="M110.000 122.430 C 108.790 122.611,105.640 122.941,103.000 123.164 C 95.393 123.808,84.929 124.976,81.481 125.567 C 80.205 125.785,76.155 126.162,72.481 126.404 C 63.290 127.010,55.422 127.848,50.200 128.777 C 47.780 129.208,45.170 129.569,44.400 129.580 C 42.924 129.601,39.905 130.215,34.600 131.572 C 32.840 132.022,31.016 132.393,30.548 132.395 C 29.610 132.400,22.874 135.720,21.706 136.752 C 21.303 137.108,19.810 138.390,18.389 139.600 C 13.340 143.899,10.469 147.286,9.001 150.674 C 8.638 151.513,7.920 153.117,7.405 154.238 C 5.778 157.783,5.763 171.484,7.361 196.400 C 7.692 201.570,8.156 210.750,8.390 216.800 C 8.836 228.313,9.130 233.516,10.171 248.400 C 10.517 253.350,10.985 260.910,11.210 265.200 C 11.436 269.490,11.771 274.170,11.954 275.600 C 12.138 277.030,12.682 281.800,13.163 286.200 C 13.644 290.600,14.302 296.270,14.626 298.800 C 14.950 301.330,15.565 307.900,15.993 313.400 C 16.831 324.165,16.917 324.950,17.777 329.800 C 18.089 331.560,18.630 334.890,18.979 337.200 C 19.327 339.510,19.805 342.660,20.041 344.200 C 20.276 345.740,20.826 348.233,21.263 349.739 L 22.057 352.478 23.529 352.219 C 24.338 352.077,25.360 351.540,25.800 351.027 C 26.240 350.513,27.500 349.335,28.600 348.408 C 29.700 347.482,32.865 344.536,35.634 341.862 C 47.088 330.801,55.197 323.142,58.400 320.361 C 60.270 318.737,61.948 317.174,62.129 316.888 C 62.620 316.111,68.735 310.000,69.022 310.000 C 69.158 310.000,69.838 309.441,70.534 308.758 C 73.812 305.540,87.649 292.431,93.922 286.600 C 95.342 285.280,97.425 283.232,98.552 282.050 C 99.678 280.867,100.946 279.607,101.369 279.250 C 102.458 278.329,107.149 273.929,110.804 270.400 C 112.513 268.750,114.105 267.220,114.342 267.000 C 120.795 260.999,120.587 261.706,120.024 247.716 C 119.476 234.071,119.465 218.104,119.990 197.600 C 120.592 174.100,121.519 149.255,121.812 148.781 C 121.993 148.487,123.385 133.982,123.786 128.200 C 123.966 125.619,123.872 124.729,123.301 123.600 L 122.594 122.200 117.397 122.151 C 114.539 122.124,111.210 122.249,110.000 122.430 M140.108 282.393 L 139.220 283.112 140.079 283.337 C 141.098 283.603,141.600 283.360,141.600 282.600 C 141.600 281.701,141.056 281.626,140.108 282.393 M146.400 282.790 C 145.825 283.171,145.978 283.200,148.600 283.200 C 148.710 283.200,148.806 283.065,148.812 282.900 C 148.832 282.429,147.066 282.349,146.400 282.790 M260.702 282.699 L 255.604 282.824 254.857 284.312 C 253.837 286.341,253.843 288.382,254.872 289.477 C 255.582 290.232,255.667 290.704,255.483 292.877 C 255.077 297.680,254.403 303.812,253.976 306.600 C 253.740 308.140,253.471 309.904,253.379 310.520 C 253.280 311.182,253.371 311.541,253.601 311.399 C 253.816 311.266,253.890 311.420,253.767 311.743 C 253.643 312.064,253.712 312.942,253.919 313.693 C 254.201 314.712,254.147 315.343,253.708 316.182 C 253.276 317.006,253.227 317.541,253.523 318.191 C 254.347 320.000,254.442 323.547,253.828 329.640 C 253.261 335.267,253.278 338.707,253.882 340.400 C 254.323 341.636,254.251 343.430,253.725 344.300 C 253.426 344.795,253.298 345.200,253.440 345.200 C 253.582 345.200,253.504 345.434,253.267 345.719 C 253.008 346.031,252.809 348.697,252.768 352.419 C 252.698 358.662,251.942 365.414,251.146 366.900 C 250.793 367.560,250.501 371.442,250.414 376.639 C 250.400 377.459,249.184 379.200,248.625 379.200 C 248.205 379.200,247.392 380.103,247.088 380.906 C 246.941 381.294,246.381 381.779,245.844 381.983 C 244.696 382.420,244.531 382.937,244.439 386.400 C 244.378 388.687,244.241 389.106,243.302 389.881 C 242.392 390.632,242.333 390.799,242.897 391.016 C 243.589 391.281,245.632 390.297,246.874 389.100 C 247.273 388.715,247.849 388.400,248.154 388.400 C 248.459 388.400,249.003 387.950,249.363 387.400 C 249.724 386.850,250.347 386.400,250.749 386.400 C 251.229 386.400,251.694 385.853,252.107 384.800 C 252.455 383.915,253.006 383.200,253.341 383.200 C 253.674 383.200,254.062 382.834,254.204 382.387 C 254.346 381.940,254.890 381.113,255.412 380.549 C 255.983 379.933,256.469 378.780,256.630 377.662 C 256.998 375.107,257.773 373.349,258.766 372.818 C 259.225 372.573,259.600 372.097,259.600 371.760 C 259.600 370.854,261.242 367.200,261.649 367.200 C 261.842 367.200,262.000 364.619,262.000 361.464 C 262.000 355.369,262.437 352.994,263.952 350.867 C 264.578 349.988,264.803 349.064,264.813 347.338 C 264.836 343.190,265.477 339.562,266.410 338.301 C 267.178 337.262,267.322 336.368,267.608 330.860 C 268.011 323.104,268.745 317.191,269.404 316.400 C 269.727 316.012,270.015 313.466,270.219 309.200 C 270.697 299.178,270.835 298.181,271.854 297.400 C 272.502 296.904,273.197 288.349,272.845 285.217 C 272.510 282.229,273.286 282.390,260.702 282.699 M142.968 285.252 C 142.627 285.804,143.410 286.565,143.965 286.222 C 144.204 286.074,144.400 285.803,144.400 285.619 C 144.400 285.087,143.252 284.793,142.968 285.252 M119.600 304.669 C 119.600 305.036,119.323 305.643,118.984 306.018 C 118.424 306.636,118.443 306.718,119.184 306.912 C 119.762 307.063,120.002 306.932,120.005 306.463 C 120.008 306.098,120.119 305.395,120.252 304.900 C 120.397 304.360,120.315 304.000,120.047 304.000 C 119.801 304.000,119.600 304.301,119.600 304.669 M108.300 311.232 C 107.321 311.802,107.428 312.274,108.586 312.495 C 109.587 312.687,110.032 312.208,109.698 311.300 C 109.479 310.703,109.229 310.691,108.300 311.232 M85.600 328.201 C 85.600 328.505,85.808 328.881,86.062 329.038 C 86.348 329.215,86.415 329.148,86.238 328.862 C 86.069 328.588,86.207 328.400,86.576 328.400 C 87.495 328.400,87.336 327.781,86.400 327.710 C 85.958 327.677,85.600 327.896,85.600 328.201 M74.278 342.844 C 73.503 343.295,73.994 344.400,74.969 344.400 C 75.837 344.400,76.424 343.511,75.942 342.930 C 75.420 342.301,75.229 342.291,74.278 342.844 M72.239 371.662 C 72.443 371.994,72.161 372.052,71.242 371.868 C 70.516 371.723,70.057 371.768,70.183 371.972 C 70.305 372.170,70.179 372.423,69.902 372.534 C 69.626 372.646,70.120 372.738,71.000 372.740 C 72.640 372.744,74.949 372.086,73.500 372.028 C 73.115 372.013,72.800 371.820,72.800 371.600 C 72.800 371.380,72.609 371.200,72.376 371.200 C 72.143 371.200,72.081 371.408,72.239 371.662 M221.575 393.224 C 221.197 393.463,221.950 393.590,223.767 393.594 C 225.288 393.597,226.434 393.500,226.312 393.379 C 225.909 392.976,222.160 392.854,221.575 393.224 " stroke="none" fill="#4262cd" fill-rule="evenodd"></path><path id="path2" d="M0.000 202.600 L 0.000 405.200 200.000 405.200 L 400.000 405.200 400.000 202.600 L 400.000 0.000 283.600 0.000 C 170.296 0.000,167.200 0.020,167.200 0.746 C 167.200 1.619,169.158 1.996,173.756 2.007 C 175.320 2.011,178.310 2.281,180.400 2.608 C 189.846 4.083,191.401 4.219,203.200 4.601 C 212.676 4.909,220.703 5.499,224.800 6.191 C 226.670 6.506,230.270 6.975,232.800 7.233 C 235.330 7.491,239.016 8.041,240.991 8.455 C 243.058 8.889,247.893 9.380,252.391 9.614 C 259.677 9.993,264.895 10.487,269.200 11.205 C 270.190 11.371,273.340 11.879,276.200 12.335 C 279.060 12.791,282.660 13.455,284.200 13.811 C 285.740 14.166,289.430 14.624,292.400 14.828 C 299.038 15.284,301.806 15.637,307.200 16.716 C 309.510 17.177,313.110 17.760,315.200 18.011 C 317.290 18.262,320.170 18.800,321.600 19.207 C 323.030 19.614,325.910 20.060,328.000 20.200 C 332.124 20.475,338.402 21.384,340.247 21.972 C 340.881 22.175,342.930 22.542,344.800 22.787 C 346.670 23.033,349.640 23.663,351.400 24.187 C 353.160 24.711,356.280 25.361,358.334 25.633 C 363.016 26.251,364.543 27.137,364.726 29.342 C 364.937 31.890,364.022 32.905,348.667 47.141 C 346.210 49.419,344.020 51.463,343.800 51.683 C 338.906 56.579,336.591 58.800,336.383 58.800 C 336.107 58.800,333.493 61.330,330.140 64.842 C 327.840 67.252,319.425 75.333,316.647 77.800 C 315.656 78.680,313.980 80.270,312.923 81.333 C 311.865 82.397,310.550 83.657,310.000 84.133 C 309.450 84.610,306.750 87.262,304.000 90.028 C 301.250 92.793,298.460 95.403,297.800 95.828 C 297.140 96.252,296.150 97.132,295.600 97.782 C 295.050 98.432,294.061 99.422,293.403 99.982 C 292.745 100.542,291.035 102.216,289.603 103.702 C 288.171 105.188,286.817 106.403,286.593 106.402 C 286.369 106.401,285.917 106.842,285.589 107.383 C 285.261 107.923,284.004 109.191,282.796 110.200 C 278.745 113.584,275.823 116.192,275.008 117.152 C 269.099 124.113,263.805 125.893,254.000 124.216 C 252.130 123.896,248.357 123.434,245.616 123.189 C 242.874 122.943,240.450 122.631,240.229 122.495 C 239.753 122.200,190.977 121.384,180.600 121.497 C 176.640 121.541,163.023 121.693,150.340 121.835 L 127.280 122.095 126.278 123.625 C 124.901 125.729,124.492 127.994,124.188 135.206 C 124.044 138.613,123.478 145.360,122.931 150.200 C 121.653 161.491,121.633 161.791,121.147 177.200 C 120.922 184.350,120.586 194.070,120.401 198.800 C 119.647 218.072,119.489 230.169,119.934 234.580 C 121.375 248.843,121.383 262.800,119.951 262.800 C 119.484 262.800,115.200 267.132,115.200 267.605 C 115.200 267.808,114.755 268.208,114.211 268.493 C 113.666 268.778,111.991 270.179,110.487 271.606 C 108.983 273.033,107.404 274.489,106.977 274.843 C 106.549 275.196,105.901 275.826,105.535 276.243 C 105.169 276.659,103.213 278.530,101.189 280.400 C 99.165 282.270,94.875 286.366,91.655 289.502 C 85.342 295.650,78.986 301.747,71.440 308.893 C 68.822 311.372,65.311 314.750,63.638 316.400 C 61.965 318.050,59.427 320.456,57.998 321.746 C 52.169 327.011,40.199 338.343,36.700 341.910 C 36.425 342.190,34.850 343.686,33.200 345.234 C 31.550 346.782,30.020 348.235,29.800 348.464 C 25.521 352.909,22.603 355.474,22.002 355.316 C 20.272 354.864,19.183 350.085,18.193 338.600 C 17.851 334.640,17.208 329.600,16.763 327.400 C 16.319 325.200,15.782 320.340,15.570 316.600 C 15.359 312.860,15.026 308.990,14.831 308.000 C 13.658 302.060,13.191 298.150,12.824 291.200 C 12.598 286.910,12.156 281.600,11.843 279.400 C 11.031 273.700,10.425 266.254,10.003 256.800 C 9.802 252.290,9.376 247.160,9.056 245.400 C 8.499 242.338,8.180 235.417,7.182 204.800 C 6.942 197.430,6.668 191.160,6.573 190.867 C 6.281 189.969,5.496 168.373,5.385 158.200 C 5.327 152.920,5.147 146.940,4.985 144.910 C 4.703 141.382,5.128 138.183,6.036 136.990 C 6.208 136.765,6.648 135.685,7.015 134.590 C 7.382 133.496,8.088 132.060,8.584 131.400 C 9.079 130.740,9.625 129.750,9.796 129.200 C 10.597 126.629,15.328 121.619,27.999 109.922 C 31.408 106.775,34.547 103.750,34.974 103.200 C 35.400 102.650,36.534 101.480,37.493 100.600 C 38.452 99.720,40.353 97.962,41.718 96.694 C 43.083 95.426,44.695 94.167,45.300 93.897 C 45.905 93.626,46.400 93.211,46.400 92.975 C 46.400 92.620,48.704 90.089,51.237 87.660 C 51.547 87.363,52.675 86.283,53.744 85.260 C 54.813 84.237,56.809 82.320,58.181 81.000 C 59.552 79.680,61.951 77.430,63.512 76.000 C 65.074 74.570,67.757 72.086,69.476 70.479 C 73.443 66.770,73.239 66.964,74.307 65.902 C 77.886 62.342,84.504 56.036,88.200 52.664 C 90.620 50.456,94.889 46.388,97.687 43.625 C 100.485 40.861,103.995 37.501,105.487 36.159 C 109.689 32.377,114.064 28.277,114.765 27.462 C 117.614 24.153,125.429 16.728,127.473 15.389 C 128.046 15.013,129.318 13.903,130.299 12.922 C 131.902 11.319,136.915 7.600,137.472 7.600 C 137.595 7.600,138.301 7.068,139.042 6.417 C 139.782 5.767,141.317 4.959,142.451 4.622 C 143.586 4.285,145.268 3.567,146.189 3.027 C 147.111 2.487,148.795 1.922,149.932 1.771 C 151.588 1.552,152.000 1.348,152.000 0.748 C 152.000 0.020,149.989 0.000,76.000 0.000 L 0.000 0.000 0.000 202.600 M381.548 46.011 C 381.984 46.727,382.385 48.401,382.532 50.111 C 382.667 51.700,383.134 54.080,383.567 55.400 C 384.447 58.077,385.200 65.486,385.200 71.470 C 385.200 74.186,385.444 76.257,385.989 78.163 C 386.957 81.547,387.501 85.404,388.000 92.427 C 388.210 95.382,388.562 98.880,388.782 100.200 C 389.789 106.239,390.019 108.876,390.404 118.800 C 390.630 124.630,391.087 130.930,391.420 132.800 C 391.753 134.670,392.195 138.360,392.403 141.000 C 392.610 143.640,392.960 148.140,393.181 151.000 C 393.402 153.860,393.765 158.180,393.989 160.600 C 394.878 170.212,395.205 178.876,395.623 204.000 C 395.866 218.585,396.237 230.889,396.459 231.754 C 397.114 234.294,397.230 255.090,396.599 256.786 C 396.309 257.564,395.862 259.348,395.606 260.752 C 395.179 263.086,394.000 265.941,391.952 269.600 C 391.521 270.370,390.808 271.763,390.368 272.695 C 389.928 273.627,389.215 274.578,388.784 274.809 C 388.353 275.039,388.000 275.470,388.000 275.765 C 388.000 276.529,382.609 281.702,381.189 282.301 C 380.535 282.577,380.000 283.012,380.000 283.268 C 380.000 283.618,371.892 291.849,369.885 293.536 C 369.712 293.681,369.262 294.114,368.885 294.498 C 367.396 296.016,360.312 302.702,358.394 304.400 C 357.276 305.390,354.434 308.133,352.080 310.495 C 346.608 315.985,347.160 315.448,343.200 319.143 C 341.330 320.887,337.550 324.465,334.800 327.093 C 332.050 329.721,328.829 332.755,327.643 333.836 C 324.875 336.356,322.645 338.562,320.451 340.952 C 319.490 342.000,318.275 343.020,317.751 343.218 C 317.228 343.417,316.800 343.850,316.800 344.180 C 316.800 344.510,316.287 345.045,315.659 345.369 C 315.032 345.694,314.218 346.418,313.850 346.980 C 313.482 347.541,312.994 348.000,312.766 348.000 C 312.537 348.000,310.590 349.800,308.439 352.000 C 306.287 354.200,304.318 356.000,304.064 356.000 C 303.809 356.000,303.601 356.225,303.603 356.500 C 303.604 356.775,302.986 357.630,302.229 358.400 C 298.205 362.490,297.005 363.600,296.606 363.600 C 296.364 363.600,294.537 365.175,292.547 367.100 C 290.556 369.025,288.134 371.252,287.164 372.049 C 286.194 372.847,284.770 374.186,284.000 375.026 C 281.004 378.293,277.354 381.902,276.400 382.541 C 275.850 382.909,273.794 384.782,271.832 386.702 C 269.869 388.623,267.958 390.376,267.585 390.597 C 267.211 390.819,265.667 391.930,264.153 393.066 C 262.071 394.628,260.815 395.255,259.000 395.636 C 257.638 395.922,256.382 396.444,256.097 396.843 C 255.174 398.129,245.602 399.262,242.563 398.444 C 241.688 398.208,236.363 397.827,230.731 397.598 C 225.099 397.368,219.256 397.001,217.746 396.781 C 211.501 395.875,204.323 395.241,200.000 395.215 C 193.902 395.178,186.404 394.537,183.415 393.796 C 182.055 393.459,176.369 392.941,170.400 392.609 C 162.334 392.160,159.131 391.826,157.000 391.213 C 154.995 390.636,151.985 390.288,146.400 389.986 C 140.680 389.678,137.587 389.314,134.800 388.622 C 132.262 387.992,128.627 387.522,123.853 387.207 C 118.495 386.854,115.992 386.507,113.853 385.820 C 111.918 385.198,109.456 384.814,106.200 384.625 C 100.989 384.323,99.098 384.046,95.359 383.041 C 94.016 382.679,90.027 382.130,86.494 381.820 C 82.180 381.442,79.639 381.034,78.758 380.579 C 77.949 380.160,75.449 379.706,72.224 379.393 C 69.351 379.113,65.290 378.438,63.200 377.891 C 61.110 377.345,57.690 376.774,55.600 376.622 C 51.887 376.354,49.034 375.784,48.169 375.138 C 47.932 374.961,45.459 374.567,42.674 374.262 C 39.889 373.956,37.338 373.481,37.005 373.204 C 35.579 372.021,36.863 368.689,39.087 367.798 C 40.057 367.410,40.965 366.627,41.559 365.667 C 42.074 364.832,43.091 363.742,43.818 363.244 C 44.545 362.746,46.059 361.351,47.182 360.143 C 48.306 358.936,49.849 357.688,50.613 357.369 C 51.376 357.050,52.000 356.554,52.000 356.267 C 52.000 355.472,54.703 352.484,55.711 352.165 C 56.454 351.930,58.058 350.490,62.065 346.462 C 65.801 342.705,76.671 332.270,80.462 328.800 C 82.265 327.150,85.468 324.090,87.581 322.000 C 89.693 319.910,92.497 317.229,93.811 316.042 C 102.109 308.546,110.000 300.905,110.000 300.365 C 110.000 300.194,110.390 299.930,110.867 299.779 C 111.344 299.627,113.486 297.770,115.628 295.652 C 117.769 293.533,119.707 291.620,119.934 291.400 C 120.160 291.180,120.763 290.589,121.273 290.086 C 122.243 289.130,126.927 284.699,129.247 282.543 C 129.991 281.851,131.153 280.681,131.830 279.943 C 134.808 276.690,137.060 275.672,139.639 276.411 C 140.385 276.625,141.559 276.800,142.249 276.800 C 142.938 276.800,144.187 277.086,145.024 277.436 C 146.180 277.919,148.950 278.157,156.573 278.427 C 171.015 278.938,176.450 279.201,181.200 279.616 C 196.185 280.926,250.236 281.072,254.370 279.813 C 255.434 279.489,259.047 279.154,263.000 279.012 C 275.726 278.556,275.414 278.716,275.770 272.474 C 276.110 266.523,276.795 259.702,277.244 257.800 C 277.451 256.920,277.979 247.290,278.416 236.400 C 278.852 225.510,279.431 211.650,279.702 205.600 C 280.315 191.888,280.276 169.733,279.610 153.155 L 279.102 140.509 280.210 138.619 C 280.819 137.580,281.698 136.556,282.163 136.344 C 282.629 136.132,283.324 135.411,283.708 134.741 C 284.092 134.071,284.765 133.430,285.203 133.315 C 285.642 133.200,286.000 132.891,286.000 132.627 C 286.000 132.363,286.585 131.582,287.300 130.891 C 288.015 130.201,288.870 129.354,289.200 129.011 C 290.880 127.263,292.818 125.600,293.176 125.600 C 293.398 125.600,293.852 125.073,294.185 124.428 C 294.519 123.784,295.126 123.150,295.535 123.021 C 295.944 122.891,296.480 122.343,296.726 121.803 C 296.972 121.264,297.586 120.718,298.090 120.592 C 298.595 120.465,299.322 119.813,299.707 119.142 C 300.092 118.472,300.743 117.835,301.154 117.728 C 301.565 117.621,302.123 117.118,302.394 116.610 C 302.666 116.103,303.305 115.465,303.814 115.193 C 304.323 114.920,304.843 114.283,304.970 113.775 C 305.098 113.268,305.537 112.747,305.947 112.617 C 306.356 112.487,308.291 110.833,310.246 108.941 C 312.201 107.050,315.147 104.317,316.793 102.868 C 320.010 100.037,322.859 97.439,325.200 95.200 C 326.005 94.430,327.503 93.080,328.529 92.200 C 329.554 91.320,330.395 90.384,330.397 90.120 C 330.399 89.857,331.030 89.160,331.800 88.573 C 332.570 87.986,333.200 87.263,333.200 86.967 C 333.200 86.670,333.605 86.219,334.100 85.964 C 334.595 85.709,335.418 84.983,335.929 84.350 C 336.440 83.718,337.021 83.200,337.220 83.200 C 337.534 83.200,340.032 80.905,344.200 76.786 C 344.860 76.134,345.597 75.600,345.836 75.600 C 346.076 75.600,346.479 75.145,346.732 74.589 C 346.986 74.033,347.496 73.461,347.867 73.319 C 348.237 73.177,349.400 72.147,350.450 71.030 C 352.802 68.530,352.959 68.373,355.254 66.241 C 356.274 65.294,357.315 64.132,357.568 63.660 C 357.821 63.187,358.201 62.800,358.413 62.800 C 358.908 62.800,365.114 56.950,368.953 52.864 C 369.296 52.499,370.132 51.750,370.810 51.200 C 371.488 50.650,372.865 49.433,373.871 48.495 C 374.876 47.558,376.172 46.675,376.750 46.534 C 377.327 46.393,378.229 45.945,378.754 45.539 C 380.085 44.508,380.697 44.612,381.548 46.011 " stroke="none" fill="#fafbfa" fill-rule="evenodd"></path><path id="path3" d="M152.000 0.748 C 152.000 1.348,151.588 1.552,149.932 1.771 C 148.795 1.922,147.111 2.487,146.189 3.027 C 145.268 3.567,143.586 4.285,142.451 4.622 C 141.317 4.959,139.782 5.767,139.042 6.417 C 138.301 7.068,137.595 7.600,137.472 7.600 C 136.915 7.600,131.902 11.319,130.299 12.922 C 129.318 13.903,128.046 15.013,127.473 15.389 C 125.429 16.728,117.614 24.153,114.765 27.462 C 114.064 28.277,109.689 32.377,105.487 36.159 C 103.995 37.501,100.485 40.861,97.687 43.625 C 94.889 46.388,90.620 50.456,88.200 52.664 C 84.504 56.036,77.886 62.342,74.307 65.902 C 73.239 66.964,73.443 66.770,69.476 70.479 C 67.757 72.086,65.074 74.570,63.512 76.000 C 61.951 77.430,59.552 79.680,58.181 81.000 C 56.809 82.320,54.813 84.237,53.744 85.260 C 52.675 86.283,51.547 87.363,51.237 87.660 C 48.704 90.089,46.400 92.620,46.400 92.975 C 46.400 93.211,45.905 93.626,45.300 93.897 C 44.695 94.167,43.083 95.426,41.718 96.694 C 40.353 97.962,38.452 99.720,37.493 100.600 C 36.534 101.480,35.400 102.650,34.974 103.200 C 34.547 103.750,31.408 106.775,27.999 109.922 C 15.328 121.619,10.597 126.629,9.796 129.200 C 9.625 129.750,9.079 130.740,8.584 131.400 C 8.088 132.060,7.382 133.496,7.015 134.590 C 6.648 135.685,6.208 136.765,6.036 136.990 C 5.109 138.208,4.703 141.364,5.018 144.910 C 5.199 146.940,5.337 151.210,5.326 154.400 C 5.314 157.590,5.369 159.480,5.448 158.600 C 5.938 153.106,8.439 147.389,12.087 143.425 C 13.765 141.600,12.440 139.703,10.333 140.913 L 9.200 141.563 9.200 140.120 C 9.200 139.326,9.627 137.760,10.149 136.639 C 10.672 135.517,11.215 133.949,11.357 133.154 C 11.683 131.331,13.032 129.466,16.700 125.769 C 18.295 124.161,19.600 122.752,19.600 122.638 C 19.600 122.291,23.636 118.407,36.750 106.135 C 38.593 104.411,40.843 102.211,41.750 101.247 C 42.658 100.283,44.300 98.663,45.400 97.647 C 46.500 96.631,48.404 94.810,49.631 93.600 C 50.858 92.390,53.645 89.780,55.825 87.800 C 58.005 85.820,61.411 82.648,63.394 80.751 C 65.377 78.854,68.440 75.936,70.200 74.267 C 71.960 72.598,73.580 71.029,73.800 70.781 C 74.020 70.534,74.628 69.941,75.152 69.465 C 75.675 68.989,76.538 68.195,77.070 67.700 C 77.601 67.205,78.198 66.800,78.396 66.800 C 78.593 66.800,79.074 66.260,79.464 65.600 C 79.854 64.940,80.324 64.400,80.510 64.400 C 81.061 64.400,85.200 60.328,85.200 59.785 C 85.200 59.511,85.662 59.171,86.227 59.029 C 86.792 58.887,87.557 58.239,87.927 57.588 C 88.297 56.937,88.769 56.404,88.977 56.403 C 89.184 56.401,90.264 55.455,91.377 54.300 C 92.489 53.145,94.570 51.133,96.000 49.830 C 100.812 45.443,112.129 34.647,118.465 28.400 C 121.924 24.990,125.709 21.335,126.877 20.279 C 128.045 19.222,129.366 18.007,129.814 17.579 C 130.262 17.150,130.789 16.800,130.986 16.800 C 131.183 16.800,132.462 15.638,133.827 14.217 C 135.193 12.796,137.096 11.229,138.055 10.735 C 140.104 9.681,144.112 7.190,144.400 6.793 C 145.689 5.014,189.928 5.173,198.400 6.987 C 199.830 7.293,206.040 8.014,212.200 8.589 C 218.360 9.164,226.010 9.974,229.200 10.390 C 232.390 10.805,238.510 11.258,242.800 11.397 C 247.723 11.556,251.190 11.852,252.200 12.198 C 254.027 12.824,257.033 13.296,265.000 14.208 C 268.080 14.561,271.410 15.033,272.400 15.259 C 275.960 16.070,279.115 16.423,286.086 16.791 C 290.677 17.033,293.564 17.362,294.286 17.725 C 294.899 18.033,297.470 18.586,300.000 18.954 C 302.530 19.322,306.130 19.971,308.000 20.397 C 309.870 20.823,314.730 21.457,318.800 21.807 C 323.478 22.208,326.936 22.709,328.200 23.167 C 329.300 23.565,332.000 24.125,334.200 24.411 C 336.400 24.697,338.650 25.145,339.200 25.406 C 340.458 26.004,344.723 26.644,351.345 27.230 C 355.653 27.611,356.719 27.840,357.900 28.642 C 358.677 29.169,359.467 29.600,359.656 29.600 C 359.845 29.600,360.000 29.874,360.000 30.209 C 360.000 31.026,356.062 36.000,355.414 36.000 C 355.133 36.000,354.157 36.855,353.247 37.900 C 351.319 40.113,351.297 40.136,347.447 43.800 C 345.828 45.340,342.488 48.558,340.022 50.952 C 337.557 53.345,334.699 55.980,333.670 56.806 C 332.642 57.632,328.380 61.634,324.200 65.698 C 320.020 69.762,315.913 73.698,315.073 74.444 C 312.584 76.655,307.600 81.734,307.600 82.060 C 307.600 82.226,306.745 82.938,305.700 83.642 C 304.655 84.346,301.316 87.453,298.279 90.547 C 295.243 93.640,292.337 96.448,291.822 96.786 C 290.957 97.353,282.054 105.715,274.770 112.800 C 266.156 121.180,265.875 121.339,260.200 121.064 C 258.000 120.957,250.708 120.678,243.996 120.443 C 237.284 120.207,228.734 119.742,224.996 119.408 C 208.962 117.976,150.710 117.566,139.000 118.803 C 136.800 119.036,132.589 119.355,129.642 119.513 C 123.915 119.820,122.342 120.460,124.100 121.768 C 124.485 122.054,124.800 122.753,124.800 123.320 C 124.800 124.920,125.517 124.987,126.411 123.471 L 127.223 122.095 150.311 121.836 C 163.010 121.693,176.640 121.541,180.600 121.497 C 190.977 121.384,239.753 122.200,240.229 122.495 C 240.450 122.631,242.874 122.943,245.616 123.189 C 248.357 123.434,252.130 123.896,254.000 124.216 C 263.805 125.893,269.099 124.113,275.008 117.152 C 275.823 116.192,278.745 113.584,282.796 110.200 C 284.004 109.191,285.261 107.923,285.589 107.383 C 285.917 106.842,286.369 106.401,286.593 106.402 C 286.817 106.403,288.171 105.188,289.603 103.702 C 291.035 102.216,292.745 100.542,293.403 99.982 C 294.061 99.422,295.050 98.432,295.600 97.782 C 296.150 97.132,297.140 96.252,297.800 95.828 C 298.460 95.403,301.250 92.793,304.000 90.028 C 306.750 87.262,309.450 84.610,310.000 84.133 C 310.550 83.657,311.865 82.397,312.923 81.333 C 313.980 80.270,315.656 78.680,316.647 77.800 C 319.425 75.333,327.840 67.252,330.140 64.842 C 333.493 61.330,336.107 58.800,336.383 58.800 C 336.591 58.800,338.906 56.579,343.800 51.683 C 344.020 51.463,346.210 49.419,348.667 47.141 C 364.022 32.905,364.937 31.890,364.726 29.342 C 364.543 27.137,363.016 26.251,358.334 25.633 C 356.280 25.361,353.160 24.711,351.400 24.187 C 349.640 23.663,346.670 23.033,344.800 22.787 C 342.930 22.542,340.881 22.175,340.247 21.972 C 338.402 21.384,332.124 20.475,328.000 20.200 C 325.910 20.060,323.030 19.614,321.600 19.207 C 320.170 18.800,317.290 18.262,315.200 18.011 C 313.110 17.760,309.510 17.177,307.200 16.716 C 301.806 15.637,299.038 15.284,292.400 14.828 C 289.430 14.624,285.740 14.166,284.200 13.811 C 282.660 13.455,279.060 12.791,276.200 12.335 C 273.340 11.879,270.190 11.371,269.200 11.205 C 264.895 10.487,259.677 9.993,252.391 9.614 C 247.893 9.380,243.058 8.889,240.991 8.455 C 239.016 8.041,235.330 7.491,232.800 7.233 C 230.270 6.975,226.670 6.506,224.800 6.191 C 220.703 5.499,212.676 4.909,203.200 4.601 C 191.401 4.219,189.846 4.083,180.400 2.608 C 178.310 2.281,175.320 2.011,173.756 2.007 C 169.158 1.996,167.200 1.619,167.200 0.746 C 167.200 0.044,166.749 0.000,159.600 0.000 C 152.441 0.000,152.000 0.043,152.000 0.748 M378.754 45.539 C 378.229 45.945,377.327 46.393,376.750 46.534 C 376.172 46.675,374.876 47.558,373.871 48.495 C 372.865 49.433,371.488 50.650,370.810 51.200 C 370.132 51.750,369.296 52.499,368.953 52.864 C 365.114 56.950,358.908 62.800,358.413 62.800 C 358.201 62.800,357.821 63.187,357.568 63.660 C 357.315 64.132,356.274 65.294,355.254 66.241 C 352.959 68.373,352.802 68.530,350.450 71.030 C 349.400 72.147,348.237 73.177,347.867 73.319 C 347.496 73.461,346.986 74.033,346.732 74.589 C 346.479 75.145,346.076 75.600,345.836 75.600 C 345.597 75.600,344.860 76.134,344.200 76.786 C 340.032 80.905,337.534 83.200,337.220 83.200 C 337.021 83.200,336.440 83.718,335.929 84.350 C 335.418 84.983,334.595 85.709,334.100 85.964 C 333.605 86.219,333.200 86.670,333.200 86.967 C 333.200 87.263,332.570 87.986,331.800 88.573 C 331.030 89.160,330.399 89.857,330.397 90.120 C 330.395 90.384,329.554 91.320,328.529 92.200 C 327.503 93.080,326.005 94.430,325.200 95.200 C 322.859 97.439,320.010 100.037,316.793 102.868 C 315.147 104.317,312.201 107.050,310.246 108.941 C 308.291 110.833,306.356 112.487,305.947 112.617 C 305.537 112.747,305.098 113.268,304.970 113.775 C 304.843 114.283,304.323 114.920,303.814 115.193 C 303.305 115.465,302.666 116.103,302.394 116.610 C 302.123 117.118,301.565 117.621,301.154 117.728 C 300.743 117.835,300.092 118.472,299.707 119.142 C 299.322 119.813,298.595 120.465,298.090 120.592 C 297.586 120.718,296.972 121.264,296.726 121.803 C 296.480 122.343,295.944 122.891,295.535 123.021 C 295.126 123.150,294.519 123.784,294.185 124.428 C 293.852 125.073,293.398 125.600,293.176 125.600 C 292.818 125.600,290.880 127.263,289.200 129.011 C 288.870 129.354,288.015 130.201,287.300 130.891 C 286.585 131.582,286.000 132.363,286.000 132.627 C 286.000 132.891,285.642 133.200,285.203 133.315 C 284.765 133.430,284.092 134.071,283.708 134.741 C 283.324 135.411,282.629 136.132,282.163 136.344 C 281.698 136.556,280.819 137.580,280.210 138.619 L 279.102 140.509 279.610 153.155 C 280.276 169.733,280.315 191.888,279.702 205.600 C 279.431 211.650,278.852 225.510,278.416 236.400 C 277.979 247.290,277.451 256.920,277.244 257.800 C 276.793 259.708,276.110 266.522,275.766 272.541 C 275.451 278.049,275.297 278.233,270.739 278.564 C 264.566 279.012,264.576 279.072,270.838 279.136 C 276.327 279.192,277.150 279.116,277.693 278.500 C 278.403 277.694,279.409 265.339,279.785 252.800 C 279.907 248.730,280.276 243.690,280.604 241.600 C 282.098 232.109,282.497 219.213,282.549 178.759 L 282.600 139.718 284.185 137.959 C 286.969 134.868,296.876 125.136,300.620 121.813 C 304.488 118.380,307.807 115.223,313.775 109.300 C 315.825 107.265,317.615 105.600,317.752 105.600 C 317.889 105.600,320.333 103.305,323.182 100.500 C 326.030 97.695,329.270 94.591,330.381 93.603 C 331.491 92.615,332.400 91.597,332.400 91.342 C 332.400 91.088,333.030 90.507,333.800 90.053 C 334.570 89.599,335.200 88.972,335.200 88.660 C 335.200 88.348,335.558 88.000,335.997 87.885 C 336.435 87.770,337.110 87.121,337.497 86.441 C 337.883 85.761,338.434 85.204,338.721 85.203 C 339.007 85.201,340.558 83.895,342.168 82.300 C 343.777 80.705,346.584 78.050,348.407 76.400 C 350.229 74.750,352.732 72.410,353.968 71.200 C 355.203 69.990,356.571 68.711,357.007 68.358 C 357.443 68.005,358.454 67.015,359.252 66.158 C 360.051 65.301,361.804 63.700,363.148 62.600 C 364.491 61.500,365.695 60.285,365.822 59.900 C 365.950 59.515,366.222 59.200,366.427 59.200 C 366.632 59.200,368.222 57.805,369.959 56.100 C 371.696 54.395,373.863 52.370,374.775 51.600 C 375.687 50.830,376.683 49.975,376.988 49.700 C 377.780 48.987,378.401 49.079,379.229 50.033 C 380.024 50.951,380.075 51.155,381.012 57.200 C 381.371 59.510,381.933 62.840,382.262 64.600 C 382.946 68.257,383.348 72.221,383.982 81.600 C 384.228 85.230,384.770 90.630,385.186 93.600 C 385.603 96.570,386.245 102.240,386.613 106.200 C 386.982 110.160,387.544 114.480,387.863 115.800 C 388.222 117.287,388.578 122.080,388.799 128.400 C 388.995 134.010,389.441 141.210,389.791 144.400 C 391.153 156.843,391.232 158.089,392.227 182.600 C 392.360 185.900,392.727 190.277,393.040 192.327 C 393.416 194.784,393.742 202.490,393.998 214.927 C 394.676 247.969,394.490 259.906,393.286 260.779 C 392.740 261.175,391.600 263.158,391.600 263.712 C 391.600 264.009,390.880 265.669,390.000 267.400 C 389.120 269.131,388.400 270.774,388.400 271.051 C 388.400 271.535,383.359 276.758,377.140 282.717 C 376.843 283.002,374.178 285.612,371.219 288.517 C 368.259 291.423,365.426 294.081,364.924 294.424 C 364.081 295.001,356.454 302.141,351.365 307.118 C 350.174 308.282,349.200 309.407,349.200 309.618 C 349.200 309.828,348.996 310.000,348.748 310.000 C 348.499 310.000,347.009 311.305,345.436 312.900 C 343.864 314.495,341.143 317.179,339.389 318.864 C 337.635 320.550,336.020 322.114,335.800 322.340 C 335.239 322.917,329.748 328.104,329.119 328.651 C 328.833 328.899,328.296 329.439,327.923 329.851 C 327.551 330.263,326.506 331.230,325.600 332.000 C 324.694 332.770,323.648 333.715,323.276 334.101 C 322.904 334.486,322.150 335.205,321.600 335.697 C 321.050 336.189,318.980 338.168,317.000 340.093 C 310.839 346.086,304.163 352.528,302.343 354.237 C 301.384 355.138,300.242 356.353,299.805 356.937 C 299.368 357.522,298.823 358.000,298.594 358.000 C 298.365 358.000,297.706 358.495,297.128 359.100 C 296.551 359.705,293.616 362.540,290.606 365.400 C 287.597 368.260,283.349 372.355,281.167 374.500 C 278.985 376.645,277.065 378.402,276.900 378.404 C 276.617 378.408,273.758 381.100,272.360 382.678 C 272.008 383.075,271.378 383.697,270.960 384.061 C 270.542 384.424,269.464 385.504,268.563 386.461 C 267.663 387.417,266.108 388.608,265.107 389.106 C 264.107 389.605,263.066 390.280,262.795 390.606 C 262.524 390.933,262.140 391.200,261.941 391.200 C 261.743 391.200,260.665 391.830,259.545 392.600 C 258.426 393.370,257.215 394.000,256.855 393.999 C 256.495 393.998,254.978 394.294,253.486 394.657 C 251.311 395.184,250.564 395.221,249.729 394.841 C 248.841 394.436,248.564 394.482,247.844 395.153 C 247.202 395.751,245.803 396.095,242.003 396.587 C 235.909 397.376,235.307 397.795,239.673 398.211 C 247.144 398.922,255.080 398.261,256.097 396.843 C 256.382 396.444,257.638 395.922,259.000 395.636 C 260.815 395.255,262.071 394.628,264.153 393.066 C 265.667 391.930,267.211 390.819,267.585 390.597 C 267.958 390.376,269.869 388.623,271.832 386.702 C 273.794 384.782,275.850 382.909,276.400 382.541 C 277.354 381.902,281.004 378.293,284.000 375.026 C 284.770 374.186,286.194 372.847,287.164 372.049 C 288.134 371.252,290.556 369.025,292.547 367.100 C 294.537 365.175,296.364 363.600,296.606 363.600 C 297.005 363.600,298.205 362.490,302.229 358.400 C 302.986 357.630,303.604 356.775,303.603 356.500 C 303.601 356.225,303.809 356.000,304.064 356.000 C 304.318 356.000,306.287 354.200,308.439 352.000 C 310.590 349.800,312.537 348.000,312.766 348.000 C 312.994 348.000,313.482 347.541,313.850 346.980 C 314.218 346.418,315.032 345.694,315.659 345.369 C 316.287 345.045,316.800 344.510,316.800 344.180 C 316.800 343.850,317.228 343.417,317.751 343.218 C 318.275 343.020,319.490 342.000,320.451 340.952 C 322.645 338.562,324.875 336.356,327.643 333.836 C 328.829 332.755,332.050 329.721,334.800 327.093 C 337.550 324.465,341.330 320.887,343.200 319.143 C 347.160 315.448,346.608 315.985,352.080 310.495 C 354.434 308.133,357.276 305.390,358.394 304.400 C 360.312 302.702,367.396 296.016,368.885 294.498 C 369.262 294.114,369.712 293.681,369.885 293.536 C 371.892 291.849,380.000 283.618,380.000 283.268 C 380.000 283.012,380.535 282.577,381.189 282.301 C 382.609 281.702,388.000 276.529,388.000 275.765 C 388.000 275.470,388.353 275.039,388.784 274.809 C 389.215 274.578,389.928 273.627,390.368 272.695 C 390.808 271.763,391.521 270.370,391.952 269.600 C 394.000 265.941,395.179 263.086,395.606 260.752 C 395.862 259.348,396.309 257.564,396.599 256.786 C 397.230 255.090,397.114 234.294,396.459 231.754 C 396.237 230.889,395.866 218.585,395.623 204.000 C 395.205 178.876,394.878 170.212,393.989 160.600 C 393.765 158.180,393.402 153.860,393.181 151.000 C 392.960 148.140,392.610 143.640,392.403 141.000 C 392.195 138.360,391.753 134.670,391.420 132.800 C 391.087 130.930,390.630 124.630,390.404 118.800 C 390.019 108.876,389.789 106.239,388.782 100.200 C 388.562 98.880,388.210 95.382,388.000 92.427 C 387.501 85.404,386.957 81.547,385.989 78.163 C 385.444 76.257,385.200 74.186,385.200 71.470 C 385.200 65.486,384.447 58.077,383.567 55.400 C 383.134 54.080,382.667 51.700,382.532 50.111 C 382.143 45.566,380.807 43.949,378.754 45.539 M113.300 119.896 C 114.565 119.975,116.635 119.975,117.900 119.896 C 119.165 119.816,118.130 119.751,115.600 119.751 C 113.070 119.751,112.035 119.816,113.300 119.896 M81.200 122.353 C 81.200 122.922,82.375 123.048,86.100 122.878 C 91.000 122.654,90.479 122.000,85.400 122.000 C 83.090 122.000,81.200 122.159,81.200 122.353 M42.600 127.600 C 41.544 128.054,45.383 128.054,46.800 127.600 C 47.563 127.356,47.279 127.277,45.600 127.268 C 44.390 127.262,43.040 127.411,42.600 127.600 M123.410 142.210 C 123.251 144.324,123.211 146.145,123.321 146.255 C 123.431 146.365,123.651 144.724,123.810 142.610 C 123.968 140.495,124.008 138.674,123.898 138.564 C 123.788 138.454,123.568 140.095,123.410 142.210 M122.901 149.000 C 122.905 149.880,122.987 150.193,123.083 149.695 C 123.179 149.198,123.175 148.478,123.075 148.095 C 122.975 147.713,122.896 148.120,122.901 149.000 M5.293 166.000 C 5.293 166.770,5.375 167.085,5.476 166.700 C 5.576 166.315,5.576 165.685,5.476 165.300 C 5.375 164.915,5.293 165.230,5.293 166.000 M121.337 168.600 C 121.339 170.360,121.409 171.030,121.493 170.089 C 121.578 169.149,121.577 167.709,121.491 166.889 C 121.405 166.070,121.336 166.840,121.337 168.600 M120.948 184.400 C 120.948 186.710,121.014 187.655,121.095 186.500 C 121.176 185.345,121.176 183.455,121.095 182.300 C 121.014 181.145,120.948 182.090,120.948 184.400 M7.709 223.200 C 7.709 224.190,7.787 224.595,7.882 224.100 C 7.978 223.605,7.978 222.795,7.882 222.300 C 7.787 221.805,7.709 222.210,7.709 223.200 M8.140 232.400 C 8.140 234.270,8.209 235.035,8.293 234.100 C 8.377 233.165,8.377 231.635,8.293 230.700 C 8.209 229.765,8.140 230.530,8.140 232.400 M8.509 241.200 C 8.509 242.190,8.587 242.595,8.682 242.100 C 8.778 241.605,8.778 240.795,8.682 240.300 C 8.587 239.805,8.509 240.210,8.509 241.200 M120.493 246.800 C 120.493 247.570,120.575 247.885,120.676 247.500 C 120.776 247.115,120.776 246.485,120.676 246.100 C 120.575 245.715,120.493 246.030,120.493 246.800 M120.920 255.200 C 120.920 256.410,120.995 256.905,121.087 256.300 C 121.178 255.695,121.178 254.705,121.087 254.100 C 120.995 253.495,120.920 253.990,120.920 255.200 M10.101 259.400 C 10.105 260.280,10.187 260.593,10.283 260.095 C 10.379 259.598,10.375 258.878,10.275 258.495 C 10.175 258.113,10.096 258.520,10.101 259.400 M10.501 266.600 C 10.505 267.480,10.587 267.793,10.683 267.295 C 10.779 266.798,10.775 266.078,10.675 265.695 C 10.575 265.313,10.496 265.720,10.501 266.600 M136.600 276.374 C 135.940 276.535,134.950 277.053,134.400 277.525 C 133.850 277.997,132.950 278.763,132.400 279.225 C 131.850 279.688,132.513 279.315,133.872 278.395 C 135.994 276.960,136.647 276.721,138.472 276.710 C 140.082 276.701,140.356 276.622,139.600 276.389 C 138.369 276.008,138.107 276.007,136.600 276.374 M160.300 278.682 C 160.795 278.778,161.605 278.778,162.100 278.682 C 162.595 278.587,162.190 278.509,161.200 278.509 C 160.210 278.509,159.805 278.587,160.300 278.682 M256.300 279.482 C 256.795 279.578,257.605 279.578,258.100 279.482 C 258.595 279.387,258.190 279.309,257.200 279.309 C 256.210 279.309,255.805 279.387,256.300 279.482 M12.909 293.200 C 12.909 294.190,12.987 294.595,13.082 294.100 C 13.178 293.605,13.178 292.795,13.082 292.300 C 12.987 291.805,12.909 292.210,12.909 293.200 M13.223 297.233 C 13.236 298.425,13.402 300.120,13.592 301.000 C 13.832 302.114,13.870 301.506,13.715 299.000 C 13.466 294.947,13.188 293.950,13.223 297.233 M15.701 319.800 C 15.705 320.680,15.787 320.993,15.883 320.495 C 15.979 319.998,15.975 319.278,15.875 318.895 C 15.775 318.513,15.696 318.920,15.701 319.800 M18.493 342.400 C 18.493 343.170,18.575 343.485,18.676 343.100 C 18.776 342.715,18.776 342.085,18.676 341.700 C 18.575 341.315,18.493 341.630,18.493 342.400 M18.873 345.000 C 18.858 345.660,18.995 346.920,19.177 347.800 C 19.613 349.906,19.650 348.014,19.220 345.600 C 18.980 344.250,18.893 344.100,18.873 345.000 M28.000 349.864 C 26.749 351.149,26.719 351.227,27.716 350.595 C 28.330 350.205,29.012 349.552,29.230 349.143 C 29.783 348.110,29.605 348.215,28.000 349.864 M19.656 350.000 C 19.656 350.330,19.811 350.960,20.000 351.400 C 20.217 351.904,20.344 351.978,20.344 351.600 C 20.344 351.270,20.189 350.640,20.000 350.200 C 19.783 349.696,19.656 349.622,19.656 350.000 M20.440 353.000 C 20.399 355.281,22.339 355.913,24.030 354.169 C 24.760 353.416,25.241 352.800,25.099 352.800 C 24.957 352.800,24.336 353.331,23.720 353.981 C 22.478 355.290,21.805 355.103,20.919 353.200 C 20.517 352.335,20.452 352.308,20.440 353.000 M53.775 353.700 L 52.600 355.000 53.900 353.825 C 55.112 352.730,55.384 352.400,55.075 352.400 C 55.006 352.400,54.421 352.985,53.775 353.700 M37.415 368.921 C 36.102 370.925,36.281 373.600,37.729 373.600 C 38.010 373.600,37.993 373.433,37.680 373.120 C 36.904 372.344,37.101 369.857,38.016 368.875 C 38.464 368.394,38.648 368.000,38.425 368.000 C 38.201 368.000,37.747 368.414,37.415 368.921 M38.900 373.876 C 39.285 373.976,39.915 373.976,40.300 373.876 C 40.685 373.775,40.370 373.693,39.600 373.693 C 38.830 373.693,38.515 373.775,38.900 373.876 M50.600 376.000 C 51.040 376.189,51.760 376.344,52.200 376.344 L 53.000 376.344 52.200 376.000 C 51.760 375.811,51.040 375.656,50.600 375.656 L 49.800 375.656 50.600 376.000 M79.200 380.800 C 79.530 381.013,80.160 381.178,80.600 381.166 L 81.400 381.144 80.600 380.800 C 79.404 380.286,78.405 380.286,79.200 380.800 M82.305 381.483 C 82.802 381.579,83.522 381.575,83.905 381.475 C 84.287 381.375,83.880 381.296,83.000 381.301 C 82.120 381.305,81.807 381.387,82.305 381.483 M114.400 385.958 C 114.730 386.161,115.720 386.432,116.600 386.561 C 117.733 386.726,117.908 386.697,117.200 386.462 C 115.364 385.852,113.757 385.563,114.400 385.958 M121.105 387.083 C 121.602 387.179,122.322 387.175,122.705 387.075 C 123.087 386.975,122.680 386.896,121.800 386.901 C 120.920 386.905,120.607 386.987,121.105 387.083 M144.100 389.887 C 144.705 389.978,145.695 389.978,146.300 389.887 C 146.905 389.795,146.410 389.720,145.200 389.720 C 143.990 389.720,143.495 389.795,144.100 389.887 M163.100 392.282 C 163.595 392.378,164.405 392.378,164.900 392.282 C 165.395 392.187,164.990 392.109,164.000 392.109 C 163.010 392.109,162.605 392.187,163.100 392.282 M194.305 395.083 C 194.802 395.179,195.522 395.175,195.905 395.075 C 196.287 394.975,195.880 394.896,195.000 394.901 C 194.120 394.905,193.807 394.987,194.305 395.083 M215.000 396.390 C 215.764 396.728,218.314 396.957,217.967 396.656 C 217.875 396.576,216.990 396.404,216.000 396.273 C 214.798 396.114,214.466 396.153,215.000 396.390 M220.307 397.090 C 221.026 397.179,222.106 397.177,222.707 397.086 C 223.308 396.995,222.720 396.922,221.400 396.924 C 220.080 396.926,219.588 397.001,220.307 397.090 M226.105 397.487 C 226.714 397.579,227.614 397.577,228.105 397.482 C 228.597 397.387,228.100 397.311,227.000 397.314 C 225.900 397.317,225.497 397.395,226.105 397.487 " stroke="none" fill="#cae48b" fill-rule="evenodd"></path><path id="path4" d="M106.000 121.638 C 103.030 121.815,98.620 122.232,96.200 122.563 C 93.780 122.895,90.000 123.366,87.800 123.610 C 85.600 123.854,82.090 124.387,80.000 124.794 C 77.910 125.201,73.500 125.653,70.200 125.798 C 66.900 125.943,63.030 126.224,61.600 126.423 C 60.170 126.621,57.726 126.788,56.170 126.792 C 51.768 126.804,42.272 128.237,38.000 129.533 C 36.570 129.967,34.410 130.543,33.200 130.813 C 29.653 131.605,26.032 132.825,25.423 133.435 C 25.112 133.746,24.692 134.000,24.491 134.000 C 24.289 134.000,23.810 134.347,23.427 134.770 C 23.044 135.194,21.794 135.998,20.650 136.558 C 19.506 137.118,17.544 138.526,16.290 139.688 C 15.036 140.849,13.408 142.340,12.671 143.000 C 9.929 145.459,6.993 150.646,6.002 154.786 C 5.423 157.207,5.679 178.941,6.398 188.400 C 6.607 191.150,6.962 198.350,7.186 204.400 C 8.183 231.321,8.490 237.755,9.032 243.200 C 9.350 246.390,9.883 253.500,10.217 259.000 C 10.945 271.021,11.318 275.617,12.164 283.000 C 12.516 286.080,13.170 292.290,13.616 296.800 C 14.062 301.310,14.672 306.710,14.970 308.800 C 15.269 310.890,15.639 314.940,15.793 317.800 C 15.946 320.660,16.333 324.530,16.651 326.400 C 16.970 328.270,17.492 331.870,17.812 334.400 C 18.131 336.930,18.676 341.250,19.022 344.000 C 19.719 349.540,20.907 353.891,21.931 354.658 C 22.680 355.219,22.296 355.514,27.809 350.133 C 29.574 348.410,33.419 344.750,36.354 342.000 C 39.289 339.250,42.902 335.830,44.383 334.400 C 46.633 332.228,51.353 327.799,57.760 321.848 C 58.442 321.214,61.355 318.424,64.232 315.648 C 67.110 312.872,71.403 308.800,73.772 306.600 C 76.141 304.400,78.287 302.358,78.540 302.062 C 79.385 301.074,80.664 299.829,84.975 295.800 C 87.329 293.600,90.933 290.180,92.984 288.200 C 96.643 284.668,104.803 276.940,110.724 271.400 C 120.764 262.006,121.331 261.179,120.988 256.430 C 120.868 254.764,120.610 248.923,120.417 243.452 C 120.187 236.985,119.905 233.346,119.608 233.052 C 119.269 232.715,119.203 232.753,119.352 233.200 C 119.872 234.768,120.476 259.911,120.014 260.775 C 119.619 261.512,116.584 264.847,114.456 266.880 C 114.157 267.166,112.513 268.750,110.804 270.400 C 107.149 273.929,102.458 278.329,101.369 279.250 C 100.946 279.607,99.678 280.867,98.552 282.050 C 97.425 283.232,95.342 285.280,93.922 286.600 C 87.649 292.431,73.812 305.540,70.534 308.758 C 69.838 309.441,69.158 310.000,69.022 310.000 C 68.735 310.000,62.620 316.111,62.129 316.888 C 61.948 317.174,60.270 318.737,58.400 320.361 C 55.197 323.142,47.088 330.801,35.634 341.862 C 32.865 344.536,29.700 347.482,28.600 348.408 C 27.500 349.335,26.240 350.513,25.800 351.027 C 25.360 351.540,24.338 352.077,23.529 352.219 L 22.057 352.478 21.263 349.739 C 20.826 348.233,20.276 345.740,20.041 344.200 C 19.805 342.660,19.327 339.510,18.979 337.200 C 18.630 334.890,18.089 331.560,17.777 329.800 C 16.917 324.950,16.831 324.165,15.993 313.400 C 15.565 307.900,14.950 301.330,14.626 298.800 C 14.302 296.270,13.644 290.600,13.163 286.200 C 12.682 281.800,12.138 277.030,11.954 275.600 C 11.771 274.170,11.436 269.490,11.210 265.200 C 10.985 260.910,10.517 253.350,10.171 248.400 C 9.130 233.516,8.836 228.313,8.390 216.800 C 8.156 210.750,7.692 201.570,7.361 196.400 C 5.763 171.484,5.778 157.783,7.405 154.238 C 7.920 153.117,8.638 151.513,9.001 150.674 C 10.469 147.286,13.340 143.899,18.389 139.600 C 19.810 138.390,21.303 137.108,21.706 136.752 C 22.874 135.720,29.610 132.400,30.548 132.395 C 31.016 132.393,32.840 132.022,34.600 131.572 C 39.905 130.215,42.924 129.601,44.400 129.580 C 45.170 129.569,47.780 129.208,50.200 128.777 C 55.434 127.846,63.285 127.011,72.575 126.397 C 76.301 126.151,80.891 125.707,82.775 125.410 C 87.168 124.717,92.461 124.122,99.000 123.585 C 101.860 123.351,105.730 122.943,107.600 122.679 C 109.470 122.416,113.607 122.200,116.794 122.200 L 122.588 122.200 123.298 123.600 C 123.872 124.731,123.966 125.614,123.786 128.200 C 123.384 133.995,121.993 148.487,121.811 148.782 C 121.654 149.037,121.416 154.363,120.616 175.600 C 120.504 178.570,120.318 185.320,120.202 190.600 C 120.086 195.880,119.885 202.900,119.756 206.200 C 119.626 209.500,119.632 212.091,119.769 211.958 C 119.906 211.825,120.195 205.705,120.413 198.358 C 121.265 169.576,121.595 161.583,122.166 156.000 C 122.493 152.810,122.954 147.950,123.192 145.200 C 123.430 142.450,123.906 137.050,124.249 133.200 C 125.060 124.103,125.042 122.470,124.122 121.773 C 123.298 121.148,115.217 121.088,106.000 121.638 M136.990 276.815 C 135.549 277.109,133.429 278.620,130.272 281.601 C 126.376 285.280,121.823 289.593,121.400 290.006 C 121.180 290.221,120.578 290.802,120.062 291.298 C 119.546 291.794,117.434 293.865,115.367 295.900 C 113.301 297.935,111.467 299.600,111.291 299.600 C 111.115 299.600,109.879 300.725,108.544 302.100 C 107.208 303.475,105.145 305.501,103.958 306.602 C 102.771 307.703,99.640 310.660,97.000 313.173 C 91.322 318.578,84.581 324.987,81.562 327.851 C 80.373 328.979,79.040 330.278,78.600 330.738 C 78.160 331.198,76.994 332.230,76.008 333.032 C 75.023 333.834,73.900 335.010,73.514 335.645 C 73.128 336.280,72.614 336.800,72.373 336.800 C 71.812 336.800,68.415 340.065,68.407 340.614 C 68.403 340.841,67.856 341.349,67.191 341.742 C 66.526 342.134,65.177 343.298,64.194 344.328 C 62.026 346.596,62.425 346.207,58.908 349.495 C 57.317 350.983,55.350 352.740,54.536 353.400 C 53.723 354.060,52.716 355.177,52.300 355.882 C 51.883 356.588,51.172 357.282,50.719 357.426 C 50.266 357.569,48.794 358.803,47.448 360.167 C 46.102 361.530,44.444 363.032,43.764 363.505 C 43.085 363.977,42.103 364.984,41.583 365.744 C 41.062 366.503,40.088 367.445,39.418 367.837 C 35.560 370.094,36.305 373.304,40.800 373.794 C 43.138 374.049,45.886 374.571,50.600 375.656 C 51.480 375.859,54.114 376.281,56.454 376.594 C 58.793 376.908,62.123 377.542,63.854 378.003 C 65.584 378.464,69.009 378.999,71.464 379.191 C 73.920 379.384,77.340 379.904,79.064 380.346 C 82.006 381.101,85.402 381.637,90.966 382.224 C 92.267 382.362,94.607 382.801,96.166 383.201 C 97.725 383.601,101.610 384.139,104.800 384.397 C 107.990 384.654,112.580 385.296,115.000 385.822 C 117.420 386.349,121.830 386.972,124.800 387.207 C 127.770 387.441,131.910 388.004,134.000 388.457 C 136.090 388.910,140.620 389.443,144.066 389.641 C 150.275 389.999,151.818 390.180,158.400 391.326 C 160.270 391.652,164.770 392.129,168.400 392.386 C 177.601 393.039,182.300 393.502,184.400 393.962 C 185.390 394.178,190.070 394.557,194.800 394.803 C 199.530 395.050,206.460 395.515,210.200 395.837 C 233.981 397.884,233.333 397.868,242.200 396.617 C 246.979 395.942,248.800 395.161,248.800 393.786 C 248.800 393.525,249.774 392.251,250.965 390.956 C 254.990 386.577,257.652 383.166,258.539 381.253 C 259.024 380.206,260.003 378.442,260.715 377.333 C 263.285 373.327,266.400 362.497,266.400 357.567 C 266.400 357.025,266.829 354.876,267.353 352.791 C 268.386 348.681,269.026 344.249,269.404 338.600 C 269.698 334.192,270.499 329.457,271.533 326.000 C 271.961 324.570,272.420 322.950,272.551 322.400 C 272.954 320.724,273.914 311.368,274.379 304.600 C 274.621 301.080,275.098 296.989,275.440 295.509 C 275.807 293.919,276.142 290.014,276.259 285.961 L 276.457 279.104 266.128 279.316 C 259.724 279.447,255.116 279.719,254.000 280.030 C 251.579 280.704,190.307 280.746,186.400 280.076 C 184.970 279.831,179.210 279.439,173.600 279.205 C 152.093 278.309,146.554 278.000,145.200 277.620 C 142.999 277.003,138.316 276.543,136.990 276.815 M141.600 282.600 C 141.600 283.360,141.098 283.603,140.079 283.337 L 139.220 283.112 140.108 282.393 C 141.056 281.626,141.600 281.701,141.600 282.600 M148.812 282.900 C 148.806 283.065,148.710 283.200,148.600 283.200 C 145.978 283.200,145.825 283.171,146.400 282.790 C 147.066 282.349,148.832 282.429,148.812 282.900 M271.600 282.756 C 273.221 283.205,273.447 296.180,271.854 297.400 C 270.835 298.181,270.697 299.178,270.219 309.200 C 270.015 313.466,269.727 316.012,269.404 316.400 C 268.745 317.191,268.011 323.104,267.608 330.860 C 267.322 336.368,267.178 337.262,266.410 338.301 C 265.477 339.562,264.836 343.190,264.813 347.338 C 264.803 349.064,264.578 349.988,263.952 350.867 C 262.437 352.994,262.000 355.369,262.000 361.464 C 262.000 364.619,261.842 367.200,261.649 367.200 C 261.242 367.200,259.600 370.854,259.600 371.760 C 259.600 372.097,259.225 372.573,258.766 372.818 C 257.773 373.349,256.998 375.107,256.630 377.662 C 256.469 378.780,255.983 379.933,255.412 380.549 C 254.890 381.113,254.346 381.940,254.204 382.387 C 254.062 382.834,253.674 383.200,253.341 383.200 C 253.006 383.200,252.455 383.915,252.107 384.800 C 251.694 385.853,251.229 386.400,250.749 386.400 C 250.347 386.400,249.724 386.850,249.363 387.400 C 249.003 387.950,248.459 388.400,248.154 388.400 C 247.849 388.400,247.273 388.715,246.874 389.100 C 245.632 390.297,243.589 391.281,242.897 391.016 C 242.333 390.799,242.392 390.632,243.302 389.881 C 244.241 389.106,244.378 388.687,244.439 386.400 C 244.531 382.937,244.696 382.420,245.844 381.983 C 246.381 381.779,246.941 381.294,247.088 380.906 C 247.392 380.103,248.205 379.200,248.625 379.200 C 249.184 379.200,250.400 377.459,250.414 376.639 C 250.501 371.442,250.793 367.560,251.146 366.900 C 251.942 365.414,252.698 358.662,252.768 352.419 C 252.809 348.697,253.008 346.031,253.267 345.719 C 253.504 345.434,253.582 345.200,253.440 345.200 C 253.298 345.200,253.426 344.795,253.725 344.300 C 254.251 343.430,254.323 341.636,253.882 340.400 C 253.278 338.707,253.261 335.267,253.828 329.640 C 254.442 323.547,254.347 320.000,253.523 318.191 C 253.227 317.541,253.276 317.006,253.708 316.182 C 254.147 315.343,254.201 314.712,253.919 313.693 C 253.712 312.942,253.643 312.064,253.767 311.743 C 253.890 311.420,253.816 311.266,253.601 311.399 C 253.371 311.541,253.280 311.182,253.379 310.520 C 253.471 309.904,253.740 308.140,253.976 306.600 C 254.403 303.812,255.077 297.680,255.483 292.877 C 255.667 290.704,255.582 290.232,254.872 289.477 C 253.843 288.382,253.837 286.341,254.857 284.312 L 255.604 282.824 260.702 282.699 C 269.902 282.473,270.590 282.477,271.600 282.756 M144.400 285.619 C 144.400 285.803,144.204 286.074,143.965 286.222 C 143.410 286.565,142.627 285.804,142.968 285.252 C 143.252 284.793,144.400 285.087,144.400 285.619 M120.252 304.900 C 120.119 305.395,120.008 306.098,120.005 306.463 C 120.002 306.932,119.762 307.063,119.184 306.912 C 118.443 306.718,118.424 306.636,118.984 306.018 C 119.323 305.643,119.600 305.036,119.600 304.669 C 119.600 304.301,119.801 304.000,120.047 304.000 C 120.315 304.000,120.397 304.360,120.252 304.900 M109.698 311.300 C 110.032 312.208,109.587 312.687,108.586 312.495 C 107.428 312.274,107.321 311.802,108.300 311.232 C 109.229 310.691,109.479 310.703,109.698 311.300 M87.200 328.085 C 87.200 328.258,86.919 328.400,86.576 328.400 C 86.207 328.400,86.069 328.588,86.238 328.862 C 86.415 329.148,86.348 329.215,86.062 329.038 C 85.303 328.569,85.538 327.645,86.400 327.710 C 86.840 327.743,87.200 327.912,87.200 328.085 M75.942 342.930 C 76.424 343.511,75.837 344.400,74.969 344.400 C 73.994 344.400,73.503 343.295,74.278 342.844 C 75.229 342.291,75.420 342.301,75.942 342.930 M72.800 371.600 C 72.800 371.820,73.115 372.013,73.500 372.028 C 74.949 372.086,72.640 372.744,71.000 372.740 C 70.120 372.738,69.626 372.646,69.902 372.534 C 70.179 372.423,70.305 372.170,70.183 371.972 C 70.057 371.768,70.516 371.723,71.242 371.868 C 72.161 372.052,72.443 371.994,72.239 371.662 C 72.081 371.408,72.143 371.200,72.376 371.200 C 72.609 371.200,72.800 371.380,72.800 371.600 M226.312 393.379 C 226.434 393.500,225.288 393.597,223.767 393.594 C 221.950 393.590,221.197 393.463,221.575 393.224 C 222.160 392.854,225.909 392.976,226.312 393.379 " stroke="none" fill="#906dac" fill-rule="evenodd"></path></g></svg>